<svg xmlns="http://www.w3.org/2000/svg" data-name="Layer 1" viewBox="0 0 1024 1280" x="0px" y="0px"><title>icon-01</title><path fill="#000000" d="M512.18 128c-212.39 0-384.57 172.18-384.57 384.57s172.18 384.56 384.57 384.56 384.57-172.18 384.57-384.57S724.57 128 512.18 128z m0 723c-186.9 0-338.42-151.52-338.42-338.42s151.52-338.44 338.42-338.44S850.6 325.65 850.6 512.56 699.09 851 512.18 851zM434.88 389.5a20 20 0 0 1 20 20v206.11a20 20 0 0 1-20 20 20 20 0 0 1-20-20V409.5a20 20 0 0 1 20-20zM589.48 389.5a20.06 20.06 0 0 0-20 20v206.11a20 20 0 0 0 40 0V409.5a20.06 20.06 0 0 0-20-20z"/><text x="0" y="1039" fill="#000000" font-size="5px" font-weight="bold" font-family="'Helvetica Neue', Helvetica, Arial-Unicode, Arial, Sans-serif">Created by Jose Burgess</text><text x="0" y="1044" fill="#000000" font-size="5px" font-weight="bold" font-family="'Helvetica Neue', Helvetica, Arial-Unicode, Arial, Sans-serif">from the Noun Project</text></svg>